<?xml version="1.0" encoding="UTF-8"?>
<svg version="1.1" xmlns="http://www.w3.org/2000/svg" width="48" height="48">
<path d="M0 0 C15.84 0 31.68 0 48 0 C48 15.84 48 31.68 48 48 C32.16 48 16.32 48 0 48 C0 32.16 0 16.32 0 0 Z " fill="#262626" transform="translate(0,0)"/>
<path d="M0 0 C1.32 0 2.64 0 4 0 C4.99 3.63 5.98 7.26 7 11 C7.99 8.36 8.98 5.72 10 3 C10.99 3.33 11.98 3.66 13 4 C14.1875 7.5625 14.1875 7.5625 15 11 C15.99 7.37 16.98 3.74 18 0 C19.32 0 20.64 0 22 0 C21.3622098 7.52592433 19.80110167 14.67098882 18 22 C16.35 21.67 14.7 21.34 13 21 C12.67 18.69 12.34 16.38 12 14 C11.34 14 10.68 14 10 14 C9.67 16.64 9.34 19.28 9 22 C7.35 22 5.7 22 4 22 C3.32636628 19.27238489 2.66090556 16.543201 2 13.8125 C1.80921875 13.04357422 1.6184375 12.27464844 1.421875 11.48242188 C0.48376579 7.57921747 -0.25957208 4.04770205 0 0 Z " fill="#ECECEC" transform="translate(22,13)"/>
<path d="M0 0 C9.9609375 -0.1953125 9.9609375 -0.1953125 13 0 C15 2 15 2 15.265625 4.0234375 C15.26046875 4.79945312 15.2553125 5.57546875 15.25 6.375 C15.25515625 7.14585938 15.2603125 7.91671875 15.265625 8.7109375 C14.97676831 11.20020254 14.11889689 12.78571245 13 15 C13.83333333 17.08333333 13.83333333 17.08333333 15 19 C15 19.99 15 20.98 15 22 C13.68 22 12.36 22 11 22 C10.01 19.03 9.02 16.06 8 13 C6.68 13 5.36 13 4 13 C4 15.97 4 18.94 4 22 C2.68 22 1.36 22 0 22 C0 14.74 0 7.48 0 0 Z " fill="#EFEFEF" transform="translate(4,13)"/>
<path d="M0 0 C2.31 0 4.62 0 7 0 C7 1.65 7 3.3 7 5 C4.69 5 2.38 5 0 5 C0 3.35 0 1.7 0 0 Z " fill="#2A2A2A" transform="translate(8,17)"/>
</svg>
